<svg width="156" height="25" viewBox="0 0 156 25" fill="none" xmlns="http://www.w3.org/2000/svg">
<path d="M6.79545 24.5H0.75L8.60227 1.22727H16.0909L23.9432 24.5H17.8977L12.4318 7.09091H12.25L6.79545 24.5ZM5.98864 15.3409H18.625V19.6136H5.98864V15.3409ZM38.3097 8.20454C38.2339 7.37121 37.8968 6.72348 37.2983 6.26136C36.7074 5.79167 35.8627 5.55682 34.7642 5.55682C34.0369 5.55682 33.4309 5.65151 32.946 5.84091C32.4612 6.0303 32.0975 6.29167 31.8551 6.625C31.6127 6.95076 31.4877 7.32576 31.4801 7.75C31.465 8.09848 31.5331 8.4053 31.6847 8.67045C31.8438 8.93561 32.071 9.17045 32.3665 9.375C32.6695 9.57197 33.0331 9.74621 33.4574 9.89773C33.8816 10.0492 34.3589 10.1818 34.8892 10.2955L36.8892 10.75C38.0407 11 39.0559 11.3333 39.9347 11.75C40.821 12.1667 41.5634 12.6629 42.1619 13.2386C42.768 13.8144 43.2263 14.4773 43.5369 15.2273C43.8475 15.9773 44.0066 16.8182 44.0142 17.75C44.0066 19.2197 43.6354 20.4811 42.9006 21.5341C42.1657 22.5871 41.1089 23.3939 39.7301 23.9545C38.3589 24.5152 36.7036 24.7955 34.7642 24.7955C32.8172 24.7955 31.1203 24.5038 29.6733 23.9205C28.2263 23.3371 27.1013 22.4508 26.2983 21.2614C25.4953 20.072 25.0824 18.5682 25.0597 16.75H30.446C30.4915 17.5 30.6922 18.125 31.0483 18.625C31.4044 19.125 31.893 19.5038 32.5142 19.7614C33.143 20.0189 33.8703 20.1477 34.696 20.1477C35.4536 20.1477 36.0975 20.0455 36.6278 19.8409C37.1657 19.6364 37.5786 19.3523 37.8665 18.9886C38.1544 18.625 38.3021 18.2083 38.3097 17.7386C38.3021 17.2992 38.1657 16.9242 37.9006 16.6136C37.6354 16.2955 37.2263 16.0227 36.6733 15.7955C36.1278 15.5606 35.4309 15.3447 34.5824 15.1477L32.1506 14.5795C30.1354 14.1174 28.5483 13.3712 27.3892 12.3409C26.2301 11.303 25.6544 9.90151 25.6619 8.13636C25.6544 6.69697 26.0407 5.43561 26.821 4.35227C27.6013 3.26894 28.6809 2.42424 30.0597 1.81818C31.4384 1.21212 33.0104 0.90909 34.7756 0.90909C36.5786 0.90909 38.143 1.21591 39.4688 1.82954C40.8021 2.43561 41.8362 3.28788 42.571 4.38636C43.3059 5.48485 43.6809 6.75757 43.696 8.20454H38.3097ZM46.8551 24.5V1.22727H52.4801V11.0682H52.7869L60.4801 1.22727H67.1051L58.8551 11.6136L67.2528 24.5H60.5256L54.7301 15.3523L52.4801 18.1932V24.5H46.8551ZM74.9489 1.22727V24.5H69.3239V1.22727H74.9489ZM77.7188 5.79545V1.22727H97.3892V5.79545H90.3324V24.5H84.7869V5.79545H77.7188ZM102.264 24.5H96.2188L104.071 1.22727H111.56L119.412 24.5H113.366L107.901 7.09091H107.719L102.264 24.5ZM101.457 15.3409H114.094V19.6136H101.457V15.3409ZM121.918 24.5V1.22727H127.543V19.9318H137.224V24.5H121.918ZM140.136 24.5V1.22727H145.761V19.9318H155.443V24.5H140.136Z" fill="url(#paint0_linear_223_112)"/>
<defs>
<linearGradient id="paint0_linear_223_112" x1="-6.12973" y1="13.0919" x2="200.238" y2="13.0918" gradientUnits="userSpaceOnUse">
<stop stop-color="#EB5757"/>
<stop offset="0.297312" stop-color="#EB5757"/>
<stop offset="0.707421" stop-color="#4A3AFF"/>
<stop offset="0.961935" stop-color="#4A3AFF"/>
</linearGradient>
</defs>
</svg>
