<svg width="251" height="25" viewBox="0 0 251 25" fill="none" xmlns="http://www.w3.org/2000/svg">
<path d="M6.79545 24.5H0.75L8.60227 1.22727H16.0909L23.9432 24.5H17.8977L12.4318 7.09091H12.25L6.79545 24.5ZM5.98864 15.3409H18.625V19.6136H5.98864V15.3409ZM38.3097 8.20454C38.2339 7.37121 37.8968 6.72348 37.2983 6.26136C36.7074 5.79167 35.8627 5.55682 34.7642 5.55682C34.0369 5.55682 33.4309 5.65151 32.946 5.84091C32.4612 6.0303 32.0975 6.29167 31.8551 6.625C31.6127 6.95076 31.4877 7.32576 31.4801 7.75C31.465 8.09848 31.5331 8.4053 31.6847 8.67045C31.8438 8.93561 32.071 9.17045 32.3665 9.375C32.6695 9.57197 33.0331 9.74621 33.4574 9.89773C33.8816 10.0492 34.3589 10.1818 34.8892 10.2955L36.8892 10.75C38.0407 11 39.0559 11.3333 39.9347 11.75C40.821 12.1667 41.5634 12.6629 42.1619 13.2386C42.768 13.8144 43.2263 14.4773 43.5369 15.2273C43.8475 15.9773 44.0066 16.8182 44.0142 17.75C44.0066 19.2197 43.6354 20.4811 42.9006 21.5341C42.1657 22.5871 41.1089 23.3939 39.7301 23.9545C38.3589 24.5152 36.7036 24.7955 34.7642 24.7955C32.8172 24.7955 31.1203 24.5038 29.6733 23.9205C28.2263 23.3371 27.1013 22.4508 26.2983 21.2614C25.4953 20.072 25.0824 18.5682 25.0597 16.75H30.446C30.4915 17.5 30.6922 18.125 31.0483 18.625C31.4044 19.125 31.893 19.5038 32.5142 19.7614C33.143 20.0189 33.8703 20.1477 34.696 20.1477C35.4536 20.1477 36.0975 20.0455 36.6278 19.8409C37.1657 19.6364 37.5786 19.3523 37.8665 18.9886C38.1544 18.625 38.3021 18.2083 38.3097 17.7386C38.3021 17.2992 38.1657 16.9242 37.9006 16.6136C37.6354 16.2955 37.2263 16.0227 36.6733 15.7955C36.1278 15.5606 35.4309 15.3447 34.5824 15.1477L32.1506 14.5795C30.1354 14.1174 28.5483 13.3712 27.3892 12.3409C26.2301 11.303 25.6544 9.90151 25.6619 8.13636C25.6544 6.69697 26.0407 5.43561 26.821 4.35227C27.6013 3.26894 28.6809 2.42424 30.0597 1.81818C31.4384 1.21212 33.0104 0.90909 34.7756 0.90909C36.5786 0.90909 38.143 1.21591 39.4688 1.82954C40.8021 2.43561 41.8362 3.28788 42.571 4.38636C43.3059 5.48485 43.6809 6.75757 43.696 8.20454H38.3097ZM46.8551 24.5V1.22727H52.4801V11.0682H52.7869L60.4801 1.22727H67.1051L58.8551 11.6136L67.2528 24.5H60.5256L54.7301 15.3523L52.4801 18.1932V24.5H46.8551ZM74.9489 1.22727V24.5H69.3239V1.22727H74.9489ZM77.7188 5.79545V1.22727H97.3892V5.79545H90.3324V24.5H84.7869V5.79545H77.7188ZM102.264 24.5H96.2188L104.071 1.22727H111.56L119.412 24.5H113.366L107.901 7.09091H107.719L102.264 24.5ZM101.457 15.3409H114.094V19.6136H101.457V15.3409ZM121.918 24.5V1.22727H127.543V19.9318H137.224V24.5H121.918ZM140.136 24.5V1.22727H145.761V19.9318H155.443V24.5H140.136ZM165.23 24.5V1.22727H174.935C176.677 1.22727 178.135 1.47348 179.31 1.96591C180.491 2.45833 181.378 3.14773 181.969 4.03409C182.567 4.92045 182.866 5.94697 182.866 7.11364C182.866 8 182.681 8.79167 182.31 9.48864C181.938 10.178 181.427 10.75 180.776 11.2045C180.124 11.6591 179.37 11.9773 178.514 12.1591V12.3864C179.454 12.4318 180.321 12.6856 181.116 13.1477C181.92 13.6098 182.563 14.2538 183.048 15.0795C183.533 15.8977 183.776 16.8674 183.776 17.9886C183.776 19.2386 183.457 20.3561 182.821 21.3409C182.185 22.3182 181.264 23.0909 180.06 23.6591C178.855 24.2197 177.393 24.5 175.673 24.5H165.23ZM170.855 19.9659H174.332C175.552 19.9659 176.45 19.7348 177.026 19.2727C177.609 18.8106 177.901 18.1667 177.901 17.3409C177.901 16.7424 177.76 16.2273 177.48 15.7955C177.2 15.3561 176.802 15.0189 176.287 14.7841C175.772 14.5417 175.154 14.4205 174.435 14.4205H170.855V19.9659ZM170.855 10.7955H173.969C174.582 10.7955 175.128 10.6932 175.605 10.4886C176.082 10.2841 176.454 9.98864 176.719 9.60227C176.991 9.21591 177.128 8.75 177.128 8.20454C177.128 7.42424 176.851 6.81061 176.298 6.36364C175.745 5.91667 174.999 5.69318 174.06 5.69318H170.855V10.7955ZM186.48 24.5V1.22727H192.105V19.9318H201.787V24.5H186.48ZM225.759 12.8636C225.759 15.4242 225.266 17.5947 224.281 19.375C223.296 21.1553 221.963 22.5076 220.281 23.4318C218.607 24.3561 216.728 24.8182 214.645 24.8182C212.554 24.8182 210.671 24.3523 208.997 23.4205C207.323 22.4886 205.993 21.1364 205.009 19.3636C204.031 17.5833 203.543 15.4167 203.543 12.8636C203.543 10.303 204.031 8.13258 205.009 6.35227C205.993 4.57197 207.323 3.2197 208.997 2.29545C210.671 1.37121 212.554 0.90909 214.645 0.90909C216.728 0.90909 218.607 1.37121 220.281 2.29545C221.963 3.2197 223.296 4.57197 224.281 6.35227C225.266 8.13258 225.759 10.303 225.759 12.8636ZM220.009 12.8636C220.009 11.3485 219.793 10.0682 219.361 9.02273C218.937 7.97727 218.323 7.1856 217.52 6.64773C216.724 6.10985 215.766 5.84091 214.645 5.84091C213.531 5.84091 212.573 6.10985 211.77 6.64773C210.967 7.1856 210.349 7.97727 209.918 9.02273C209.493 10.0682 209.281 11.3485 209.281 12.8636C209.281 14.3788 209.493 15.6591 209.918 16.7045C210.349 17.75 210.967 18.5417 211.77 19.0795C212.573 19.6174 213.531 19.8864 214.645 19.8864C215.766 19.8864 216.724 19.6174 217.52 19.0795C218.323 18.5417 218.937 17.75 219.361 16.7045C219.793 15.6591 220.009 14.3788 220.009 12.8636ZM244.315 8.82955C244.187 8.35227 243.997 7.93182 243.747 7.56818C243.497 7.19697 243.19 6.88258 242.827 6.625C242.463 6.36742 242.046 6.17424 241.577 6.04545C241.107 5.90909 240.592 5.84091 240.031 5.84091C238.902 5.84091 237.925 6.11364 237.099 6.65909C236.281 7.20454 235.649 8 235.202 9.04545C234.755 10.0833 234.531 11.3447 234.531 12.8295C234.531 14.322 234.747 15.5947 235.179 16.6477C235.611 17.7008 236.236 18.5038 237.054 19.0568C237.872 19.6098 238.865 19.8864 240.031 19.8864C241.062 19.8864 241.933 19.7197 242.645 19.3864C243.365 19.0455 243.91 18.5644 244.281 17.9432C244.652 17.322 244.838 16.5909 244.838 15.75L245.884 15.875H240.224V11.7727H250.259V14.8523C250.259 16.9356 249.815 18.7197 248.929 20.2045C248.05 21.6894 246.838 22.8295 245.293 23.625C243.755 24.4205 241.986 24.8182 239.986 24.8182C237.766 24.8182 235.815 24.3371 234.134 23.375C232.452 22.4129 231.141 21.0417 230.202 19.2614C229.262 17.4735 228.793 15.3523 228.793 12.8977C228.793 10.9886 229.077 9.29545 229.645 7.81818C230.213 6.33333 231.005 5.07576 232.02 4.04545C233.043 3.01515 234.224 2.23485 235.565 1.70454C236.914 1.17424 238.365 0.90909 239.918 0.90909C241.266 0.90909 242.52 1.10227 243.679 1.48864C244.846 1.875 245.876 2.42045 246.77 3.125C247.671 3.82955 248.402 4.66667 248.963 5.63636C249.524 6.60606 249.872 7.67045 250.009 8.82955H244.315Z" fill="url(#paint0_linear_223_112)"/>
<defs>
<linearGradient id="paint0_linear_223_112" x1="-8.98379" y1="13.0919" x2="293.47" y2="13.0918" gradientUnits="userSpaceOnUse">
<stop stop-color="#EB5757"/>
<stop offset="0.297312" stop-color="#EB5757"/>
<stop offset="0.707421" stop-color="#4A3AFF"/>
<stop offset="0.961935" stop-color="#4A3AFF"/>
</linearGradient>
</defs>
</svg>
